<?xml version="1.0" standalone="no"?>
<!DOCTYPE svg PUBLIC "-//W3C//DTD SVG 20010904//EN"
 "http://www.w3.org/TR/2001/REC-SVG-20010904/DTD/svg10.dtd">
<svg version="1.0" xmlns="http://www.w3.org/2000/svg"
 width="512.000000pt" height="512.000000pt" viewBox="0 0 512.000000 512.000000"
 preserveAspectRatio="xMidYMid meet">
<metadata>
Created by potrace 1.14, written by Peter Selinger 2001-2017
</metadata>
<g transform="translate(0.000000,512.000000) scale(0.100000,-0.100000)"
fill="#000000" stroke="none">
<path d="M740 2560 l0 -1620 680 0 680 0 0 464 0 465 42 34 c24 19 48 37 54
40 7 4 193 -198 459 -498 l447 -505 814 0 814 0 -801 881 c-440 484 -799 884
-797 888 2 4 341 313 753 686 413 373 776 702 807 732 l57 53 -852 0 -853 0
-469 -439 -470 -439 -3 439 -2 439 -680 0 -680 0 0 -1620z m1080 780 c0 -352
3 -640 7 -640 4 0 89 81 188 179 99 99 402 387 674 640 l494 461 496 0 c416 0
493 -2 481 -13 -8 -8 -322 -292 -698 -632 l-683 -618 34 -36 c19 -20 328 -360
687 -756 359 -396 667 -735 683 -752 l31 -33 -480 0 -479 0 -504 570 c-415
469 -506 568 -520 560 -9 -6 -104 -79 -211 -163 l-195 -153 -3 -407 -2 -407
-400 0 -400 0 0 1420 0 1420 400 0 400 0 0 -640z"/>
<path d="M340 84 c0 -8 5 -12 10 -9 6 4 8 11 5 16 -9 14 -15 11 -15 -7z"/>
</g>
</svg>
