<svg width="1920" height="667" viewBox="0 0 1920 667" fill="none" xmlns="http://www.w3.org/2000/svg">
<path d="M1202.69 1L2014 125.252L2027.5 564L608.5 666L-25.5116 564L-74 136.243L1202.69 1Z" fill="#242424"/>
<path d="M2014 125.252L2014.5 125.237L2014.49 124.821L2014.08 124.758L2014 125.252ZM1202.69 1L1202.77 0.505763L1202.71 0.495963L1202.64 0.502782L1202.69 1ZM-74 136.243L-74.0527 135.746L-74.5535 135.799L-74.4968 136.3L-74 136.243ZM-25.5116 564L-26.0084 564.056L-25.9657 564.433L-25.591 564.494L-25.5116 564ZM608.5 666L608.421 666.494C608.459 666.5 608.497 666.501 608.536 666.499L608.5 666ZM2027.5 564L2027.54 564.499L2028.01 564.464L2028 563.985L2027.5 564ZM2014.08 124.758L1202.77 0.505763L1202.62 1.49424L2013.92 125.747L2014.08 124.758ZM1202.64 0.502782L-74.0527 135.746L-73.9473 136.741L1202.75 1.49722L1202.64 0.502782ZM-74.4968 136.3L-26.0084 564.056L-25.0148 563.944L-73.5032 136.187L-74.4968 136.3ZM-25.591 564.494L608.421 666.494L608.579 665.506L-25.4322 563.506L-25.591 564.494ZM2028 563.985L2014.5 125.237L2013.5 125.268L2027 564.015L2028 563.985ZM608.536 666.499L2027.54 564.499L2027.46 563.501L608.464 665.501L608.536 666.499Z" fill="black"/>
</svg>
